<?xml version="1.0" encoding="UTF-8"?>
<svg width="20px" height="21px" viewBox="0 0 20 21" version="1.1" xmlns="http://www.w3.org/2000/svg" xmlns:xlink="http://www.w3.org/1999/xlink">
    <title></title>
    <g id="DESKTOP" stroke="none" stroke-width="1" fill="none" fill-rule="evenodd">
        <g id="demo_page_3b" transform="translate(-539.000000, -633.000000)" fill="#2B3D4F" fill-rule="nonzero">
            <g id="Group-5-Copy-3" transform="translate(528.000000, 625.000000)">
                <path d="M25.6774731,28.3750016 C26.6105099,28.3750016 27.5067164,28.0189744 28.1696636,27.3560272 L29.9743532,25.5636144 C30.6373005,24.9129439 31.0178813,24.0044607 31.0178813,23.0714239 C31.0178813,22.1261103 30.6618541,21.2421806 29.98663,20.5669566 L27.4330556,18.0133821 C26.7701083,17.3504349 25.8616251,16.9821309 24.9285883,16.9821309 C23.9587211,16.9821309 23.0502378,17.3749885 22.3750138,18.0624893 L21.2946554,16.9821309 C21.9821562,16.3069069 22.3750138,15.3861469 22.3750138,14.4162796 C22.3750138,13.4832428 22.0189866,12.5870364 21.3560394,11.9240892 L18.8270185,9.3827915 C18.1640713,8.70756748 17.2678649,8.33926347 16.3225512,8.33926347 C15.3895144,8.33926347 14.493308,8.69529068 13.8303608,9.3582379 L12.0256711,11.1506507 C11.3627239,11.8013212 10.9821431,12.7098044 10.9821431,13.6428412 C10.9821431,14.5881548 11.3381703,15.4720845 12.0133943,16.1473085 L14.5669688,18.700883 C15.229916,19.3638302 16.1383992,19.7321342 17.0714361,19.7321342 C18.0413033,19.7321342 18.9497865,19.3392766 19.6250105,18.6517758 L20.705369,19.7321342 C20.0178681,20.4073582 19.6250105,21.3281182 19.6250105,22.2979855 C19.6250105,23.2310223 19.9810377,24.1272287 20.643985,24.7901759 L23.1730058,27.3314736 C23.8359531,28.0066976 24.7321595,28.3750016 25.6774731,28.3750016 Z M17.0714361,17.3627117 C16.7645161,17.3627117 16.457596,17.2522205 16.2366136,17.0312381 L13.6830392,14.4776636 C13.4620568,14.2566812 13.3392888,13.962038 13.3392888,13.6428412 C13.3392888,13.3359212 13.4620568,13.041278 13.6830392,12.8202956 L15.4877288,11.0278827 C15.7087112,10.8191771 16.0156312,10.6964091 16.3225512,10.6964091 C16.6294713,10.6964091 16.9363913,10.8191771 17.1573737,11.0401595 L19.6863945,13.5814572 C19.9073769,13.8024396 20.0301449,14.1093596 20.0301449,14.4162796 C20.0301449,14.7845837 19.8828233,15.0669501 19.6250105,15.3124861 C19.2198761,14.9073517 18.8761257,14.4285564 18.2500089,14.4285564 C17.5993385,14.4285564 17.0714361,14.9564589 17.0714361,15.6071293 C17.0714361,16.2332461 17.5502313,16.5769965 17.9553657,16.9821309 C17.7098297,17.2399437 17.4274633,17.3627117 17.0714361,17.3627117 Z M25.6774731,26.0055792 C25.3705531,26.0055792 25.0636331,25.895088 24.8426507,25.6741056 L22.3136298,23.1328079 C22.0926474,22.9118255 21.9698794,22.6049055 21.9698794,22.2979855 C21.9698794,21.9296815 22.117201,21.647315 22.3750138,21.401779 C22.7801482,21.8069135 23.1238986,22.2857087 23.7500155,22.2857087 C24.4006859,22.2857087 24.9285883,21.7578063 24.9285883,21.1071358 C24.9285883,20.481019 24.4497931,20.1372686 24.0446587,19.7321342 C24.2901947,19.4743214 24.5725611,19.3392766 24.9285883,19.3392766 C25.2355083,19.3392766 25.5424283,19.4620446 25.7634107,19.683027 L28.3169852,22.2366015 C28.5379676,22.4575839 28.6607356,22.7522271 28.6607356,23.0714239 C28.6607356,23.3783439 28.5379676,23.6729871 28.3169852,23.8939695 L26.5122955,25.6863824 C26.2913131,25.895088 25.9843931,26.0055792 25.6774731,26.0055792 Z" id=""></path>
            </g>
        </g>
    </g>
</svg>