<?xml version="1.0" encoding="UTF-8"?>
<svg width="121px" height="50px" viewBox="0 0 121 50" version="1.1" xmlns="http://www.w3.org/2000/svg" xmlns:xlink="http://www.w3.org/1999/xlink">
    <title>Shape</title>
    <g id="DESKTOP" stroke="none" stroke-width="1" fill="none" fill-rule="evenodd">
        <g id="demo_page_3b" transform="translate(-1248.000000, -27.000000)" fill="#fff" fill-rule="nonzero">
            <g id="surflylogo-red" transform="translate(1248.000000, 27.000000)">
                <path d="M62.6656153,17.6132633 C62.8642568,16.2508207 63.3112002,15.0525279 63.9733385,14.0019698 C64.6189233,12.9514117 65.2479547,12.4261326 65.8769861,12.4261326 C66.6715521,12.4261326 67.0688351,12.9842416 67.0688351,14.0840446 C67.0688351,15.7419567 66.6053382,17.3998687 65.6783446,19.0413657 C65.9928603,19.3532502 66.522571,19.5009849 67.3005835,19.5009849 C69.0883569,19.5009849 70.4954008,19.0085358 71.5382686,18.0072226 C72.5811364,17.0059094 73.1108471,15.7255417 73.1108471,14.1497045 C73.1108471,12.5738674 72.6970106,11.4084045 71.8858912,10.6369009 C71.0747718,9.86539724 69.9160298,9.48785292 68.4262186,9.48785292 C65.5955773,9.48785292 63.5429486,10.7846356 62.2683323,13.3617859 L62.9635776,9.48785292 L56.5739429,10.2593565 L52.63422,30.58109 L60.6460935,29.8095863 L62.6656153,17.6132633 Z M97.7920524,5.76165463 L89.92916,6.53315824 L87.7109967,17.6953381 C86.8005565,21.8975706 86.3536132,24.9507551 86.3536132,26.8713066 C86.3536132,27.7084701 86.6846823,28.5128037 87.3633741,29.2514773 C88.191047,30.1543007 89.2504683,30.5975049 90.541638,30.5975049 C93.0908704,30.5975049 94.7793231,29.6454366 95.5738891,27.7248851 C94.5144678,27.6756402 93.9847572,26.9205515 93.9847572,25.4596192 C93.9847572,24.8030204 94.1999521,23.5226527 94.6468955,21.6185161 L97.7920524,5.76165463 Z M75.27935,12.5246225 L71.6541428,30.5975049 L79.4673748,29.8260013 L82.9601544,11.9829284 L84.8969089,11.8187787 L85.2941919,9.84898227 L83.307777,9.96388707 L83.887148,7.27183191 C84.3506448,5.02298096 86.0887579,2.23243598 87.1978395,2.23243598 C87.9261917,2.23243598 89.4160028,2.65922521 89.1345941,4.3335522 C89.1180406,4.46487196 89.349789,4.36638214 89.3332356,4.46487196 L96.7822915,3.6112935 C96.9147192,2.57715036 95.2593734,1.52659225 93.7364553,0.853578464 C92.5942667,0.36112935 90.0615877,0 87.6282294,0 C85.1948712,0 82.5794248,0.837163493 81.1227206,1.46093237 C79.1363057,2.3309258 76.9678027,5.36769534 76.5043059,7.23900197 L75.6931865,10.2757715 L73.4584697,10.4235062 C73.4584697,10.4235062 74.2364822,11.5725542 74.3854633,12.5738674 C74.3523564,12.5574524 75.27935,12.5246225 75.27935,12.5246225 Z M41.8082587,28.2009192 C42.0069002,28.9231779 42.470397,29.4977019 43.1987492,29.9244911 C43.9271013,30.3676953 44.8872018,30.58109 46.1287112,30.58109 C47.353667,30.58109 48.5289625,30.1378858 49.6711511,29.2678923 C50.2174152,28.8575181 50.5650378,28.348654 50.7140189,27.7413001 C49.9691133,27.6428102 49.4725096,27.3637557 49.2407612,26.9205515 C49.0090128,26.4773473 48.8931386,26.0505581 48.8931386,25.6401838 C48.8931386,25.2298096 48.9262455,24.8358503 49.0090128,24.458306 L51.872761,9.48785292 L44.241617,10.2593565 L42.1558813,20.7156927 C42.0565606,21.2738017 41.891026,21.7826658 41.6592776,22.209455 C40.9309255,23.5718976 40.0701457,24.2449114 39.0603848,24.2449114 C38.1499446,24.2449114 37.7030012,23.5062377 37.7030012,22.0124754 C37.7030012,21.684176 37.7526616,21.2245568 37.8519823,20.6664478 L40.0204853,9.47143795 L32.1575929,10.2429416 L30.2373918,20.3381484 C34.475077,24.4911359 37.2726113,27.6263953 38.381693,30.1378858 C38.4313534,30.1543007 38.4810137,30.1871307 38.5306741,30.2035456 C39.9708249,29.8424163 41.0633531,29.1694025 41.8082587,28.2009192 Z M29.2772913,10.3742613 C29.2772913,10.4235062 29.2772913,10.4727511 29.2772913,10.5219961 C29.2938448,10.5219961 29.2938448,10.4727511 29.2772913,10.3742613 Z M113.368856,10.2429416 L111.432101,19.8128693 C111.200353,20.9619173 110.85273,21.8647406 110.37268,22.5377544 C109.89263,23.2107682 109.379473,23.5390676 108.816655,23.5390676 C108.253838,23.5390676 107.823448,23.4405778 107.525485,23.2271832 C107.343397,23.0794485 107.194416,22.8824688 107.061989,22.6362443 C106.929561,22.3900197 106.863347,22.0945502 106.863347,21.7170059 C106.863347,21.3394616 106.896454,20.9783322 106.979221,20.6172029 C107.061989,20.2560735 107.128203,19.9113592 107.177863,19.5830598 L109.114617,9.47143795 L101.251725,10.2429416 L99.4308447,19.8456993 C99.2818636,20.6172029 99.1990963,21.3722915 99.1990963,22.1109652 C99.1990963,22.8496389 99.2984171,23.5554826 99.513612,24.2284964 C100.159197,26.4609324 102.013184,27.5607354 105.092127,27.5607354 C107.542039,27.5607354 109.445687,26.8713066 110.786517,25.4924491 C110.521661,26.7235719 109.578114,32.1240972 109.296705,33.2731451 C109.164278,33.7820092 109.03185,34.2416284 108.899422,34.6848326 L112.888806,38.6408404 C112.921913,38.6080105 112.95502,38.5751806 112.988127,38.5423506 C114.941435,36.6053841 116.033963,34.7340775 118.119698,24.5732108 L121,9.48785292 L113.368856,10.2429416 Z M99.8115742,32.2717029 C90.8230467,39.4944189 77.3154253,45.026264 58.6927855,39.8063033 C50.7471258,37.5738674 44.3078308,34.980302 38.9114036,32.5673014 C39.0107244,33.1254104 39.0272778,33.8312541 39.0107244,34.3072882 C44.8706484,37.1142482 51.2106226,40.1017728 57.4512762,42.3013789 C66.1087345,45.3545634 81.1558275,50.2133946 99.8281277,46.3066316 C99.8115742,46.2902167 99.8115742,32.222587 99.8115742,32.2717029 Z M19.7424997,13.0827315 C15.6869026,9.24162837 17.0939465,3.26657912 23.2021723,4.13657255 C28.7144737,4.90807617 29.2441844,9.50426789 29.2938448,10.3742613 C29.2110775,7.99409061 28.3502977,3.39789888 22.357946,1.75640184 C15.703456,0.229809586 9.81042512,4.57977676 10.1083874,10.1936967 C10.3401358,14.4123441 14.8426762,18.6474064 21.2819713,24.0971766 C24.708537,26.8713066 26.2480085,28.2337492 26.9101469,28.8575181 C27.0094676,28.9560079 27.1087883,29.0544977 27.2081091,29.1529875 C27.3239833,29.2678923 27.3736437,29.3171372 27.3736437,29.3171372 L27.3736437,29.3171372 C30.965744,33.2567301 29.4924862,40.2659225 25.287908,41.9566645 C19.245896,44.3860801 5.9534695,43.1221274 5.27477774,35.0787919 C4.61263943,27.0518713 15.2730661,25.6730138 19.7756066,26.4773473 C20.6860468,26.641497 21.6461473,26.8877216 22.6890152,27.216021 C21.56338,26.1818779 20.2887638,25.1313198 19.3121098,24.3762311 C7.97299133,22.242285 0.507381939,27.8890348 0.0273316675,32.6001313 C-0.386504773,36.5725542 3.80152001,44.2383454 19.2790029,44.2383454 C30.3698195,44.2383454 36.7429007,38.2632961 37.007756,33.3716349 C37.0408629,32.5508864 36.8918818,31.8450427 36.8091145,31.5331582 C35.633819,27.6756402 27.6881594,20.6336179 19.7424997,13.0827315 Z M102.311146,31.4346684 L102.311146,45.8305975 L105.621838,42.7445831 L109.495347,50 L111.696957,48.6211425 L108.022089,41.9730794 L112.657057,41.9730794 L102.311146,31.4346684 Z" id="Shape"></path>
            </g>
        </g>
    </g>
</svg>